<?xml version="1.0" standalone="no"?>
<!DOCTYPE svg PUBLIC "-//W3C//DTD SVG 20010904//EN"
 "http://www.w3.org/TR/2001/REC-SVG-20010904/DTD/svg10.dtd">
<svg version="1.0" xmlns="http://www.w3.org/2000/svg"
 width="512.000000pt" height="512.000000pt" viewBox="0 0 512.000000 512.000000"
 preserveAspectRatio="xMidYMid meet">
<metadata>
Created by potrace 1.11, written by Peter Selinger 2001-2013
</metadata>
<g transform="translate(0.000000,512.000000) scale(0.100000,-0.100000)"
fill="#000000" stroke="none">
<path d="M1349 4256 c-5 -5 -85 -18 -116 -19 -13 -1 -23 -5 -23 -9 0 -4 -9 -8
-20 -8 -40 0 -290 -113 -290 -131 0 -5 -5 -9 -11 -9 -16 0 -137 -98 -179 -144
-19 -22 -40 -44 -46 -50 -20 -21 -91 -121 -110 -156 -10 -19 -23 -41 -29 -49
-5 -7 -15 -27 -21 -45 -45 -119 -64 -178 -69 -207 -3 -19 -8 -41 -10 -49 -4
-17 -16 -86 -19 -115 -1 -11 -5 -33 -9 -50 -3 -16 -9 -50 -12 -75 -3 -25 -8
-56 -11 -70 -3 -14 -7 -43 -10 -65 -2 -22 -10 -76 -18 -120 -15 -88 -26 -156
-31 -195 -2 -14 -4 -27 -5 -30 -2 -3 -3 -14 -4 -25 -1 -11 -5 -36 -9 -55 -3
-19 -14 -82 -23 -140 -9 -58 -18 -114 -20 -125 -2 -10 -6 -37 -9 -60 -7 -47
-10 -67 -26 -160 -6 -38 -13 -83 -15 -100 -2 -16 -11 -70 -19 -120 -8 -49 -17
-106 -20 -125 -2 -19 -7 -45 -9 -56 -2 -12 -7 -39 -10 -60 -4 -22 -12 -66 -18
-99 -6 -33 -11 -123 -12 -200 -1 -136 0 -142 28 -200 31 -63 33 -65 98 -132
54 -55 167 -111 233 -115 17 -1 36 -6 43 -11 6 -5 12 -6 12 -1 0 5 22 10 50
11 58 2 152 34 197 69 17 13 33 24 35 24 2 0 192 188 422 418 237 236 420 412
423 404 3 -6 9 -9 15 -6 13 8 154 8 167 0 5 -4 12 -2 15 2 3 5 18 7 33 5 16
-2 35 -4 43 -4 170 3 381 1 389 -3 5 -4 12 -2 15 2 3 5 18 7 33 5 16 -2 35 -4
43 -4 170 3 381 1 389 -3 5 -4 12 -2 15 2 3 5 18 7 33 5 16 -2 42 -4 58 -3
101 5 505 4 505 -1 0 -3 13 -4 28 -1 26 3 66 -34 438 -405 381 -382 484 -478
484 -457 0 5 4 4 8 -1 11 -15 109 -47 148 -48 18 -1 34 -6 34 -12 0 -5 4 -4 9
4 6 9 11 10 15 2 4 -6 13 -8 19 -4 7 4 17 8 22 9 6 1 25 4 44 7 63 10 164 68
219 126 50 53 102 142 102 175 0 8 4 17 9 20 4 3 7 17 6 31 -2 14 1 23 6 19 5
-3 8 22 7 60 -1 36 -6 66 -10 66 -4 0 -7 3 -6 8 1 4 -1 30 -6 57 -4 28 -10 66
-12 85 -3 19 -7 42 -9 50 -2 8 -7 34 -10 57 -8 59 -13 88 -25 163 -6 36 -13
79 -15 97 -2 17 -8 57 -14 90 -13 74 -19 108 -26 158 -7 45 -11 72 -21 130 -4
22 -8 51 -9 65 -2 14 -4 25 -5 25 -1 0 -4 14 -6 30 -2 17 -9 62 -15 100 -13
77 -18 114 -23 161 -2 17 -6 35 -9 40 -3 5 -8 41 -12 79 -4 39 -10 74 -13 79
-3 6 -7 24 -8 40 -6 59 -12 101 -17 116 -5 14 -17 95 -22 153 -2 15 -6 40 -10
55 -5 15 -9 43 -11 62 -1 19 -3 35 -4 35 -1 0 -3 9 -5 20 -23 116 -30 141 -55
210 -56 156 -155 306 -274 415 -27 25 -57 53 -67 62 -10 9 -32 24 -48 33 -17
8 -31 20 -31 25 0 5 -9 11 -20 15 -10 3 -50 23 -87 43 -37 21 -72 39 -78 40
-5 2 -46 14 -90 27 -44 13 -107 29 -140 34 -56 9 -2436 16 -2446 7z"/>
</g>
</svg>
