<?xml version="1.0" encoding="iso-8859-1"?>
<!-- Generator: Adobe Illustrator 21.0.2, SVG Export Plug-In . SVG Version: 6.00 Build 0)  -->
<svg xmlns="http://www.w3.org/2000/svg" xmlns:xlink="http://www.w3.org/1999/xlink" version="1.1" x="0px" y="0px" viewBox="0 0 40 40" style="enable-background:new 0 0 40 40;" xml:space="preserve">
<g id="Layer_1">
</g>
<g id="Layer_2">
	<g>
		<path style="fill:#98CCFD;" d="M20,38.225C17.771,35.562,6.5,21.755,6.5,15C6.5,7.556,12.556,1.5,20,1.5S33.5,7.556,33.5,15    C33.5,21.757,22.229,35.562,20,38.225z"/>
		<g>
			<path style="fill:#4788C7;" d="M20,2c7.168,0,13,5.832,13,13c0,6.268-10.116,18.954-13,22.443C17.116,33.954,7,21.268,7,15     C7,7.832,12.832,2,20,2 M20,1C12.268,1,6,7.268,6,15s14,24,14,24s14-16.268,14-24S27.732,1,20,1L20,1z"/>
		</g>
	</g>
	<g>
		<path style="fill:#FFFFFF;" d="M17,21h-2V11h2V21z"/>
		<path style="fill:#FFFFFF;" d="M21.157,17.555V21H19V11h3.38c2.414,0,3.62,1.063,3.62,3.187c0,1.004-0.346,1.816-1.038,2.438    c-0.693,0.62-1.618,0.931-2.776,0.931H21.157z M20.944,12.729v3.117h0.886c1.199,0,1.799-0.526,1.799-1.576    c0-1.028-0.6-1.541-1.799-1.541H20.944z"/>
	</g>
</g>
</svg>
